<svg width="975" height="267" viewBox="0 0 975 267" fill="none" xmlns="http://www.w3.org/2000/svg">
<path fill-rule="evenodd" clip-rule="evenodd" d="M737.596 266.696L737.596 266.651C737.596 210.043 737.596 125.131 737.596 11.9155C737.596 11.9155 787.444 5.58008 841.938 5.58008C952.195 5.58008 974.162 82.4493 974.162 150.871C974.162 192.309 961.786 236.528 933.442 266.696L737.596 266.696Z" fill="#41C6A6"/>
<path fill-rule="evenodd" clip-rule="evenodd" d="M721.974 266.699L521.639 266.699C509.585 250.093 503.262 226.948 503.262 195.447L503.262 8.93066L669.839 8.93067L669.839 184.921L720.023 181.974L721.974 266.699Z" fill="#41C6A6"/>
<path fill-rule="evenodd" clip-rule="evenodd" d="M453.803 266.695L270.318 266.695C244.705 239.843 229.872 198.963 229.872 145.953C229.872 56.9471 286.482 5.79534e-07 362.949 1.36234e-06C440.682 2.15811e-06 494.335 56.9471 494.335 145.953C494.335 198.963 479.269 239.843 453.803 266.695Z" fill="#41C6A6"/>
<path fill-rule="evenodd" clip-rule="evenodd" d="M3.44585e-06 266.699L0 8.93066L129.754 8.93067C185.785 8.93067 209.798 38.4027 209.798 74.1902C209.798 102.399 200.951 123.872 182.414 137.766C213.589 146.186 228.755 175.658 228.755 210.183C228.755 230.322 224.526 250.855 210.651 266.699L3.44585e-06 266.699Z" fill="#41C6A6"/>
</svg>
